<?xml version="1.0" encoding="UTF-8"?>
<svg id="Layer_1" data-name="Layer 1" xmlns="http://www.w3.org/2000/svg" width="1920" height="1080" viewBox="0 0 1920 1080">
  <defs>
    <style>
      .cls-1 {
        fill: #fff;
      }

      .cls-1, .cls-2 {
        stroke-width: 0px;
      }

      .cls-2 {
        fill: #ff4343;
      }
    </style>
  </defs>
  <g>
    <path class="cls-2" d="m64.3,121.7c-4.8-4.6-7.1-10.8-7.1-18.7v-33.2c-.1-3.4.7-6.5,2.2-9.2,1.6-2.7,3.8-4.8,6.6-6.4,2.9-1.6,6.2-2.4,9.9-2.4s6.6.7,9.4,2c2.8,1.3,4.9,3.3,6.4,6,2.7-5.2,7.2-7.8,13.7-7.8s4.6.2,5.9.6v12.7c-1.1-.2-2.4-.3-3.9-.3-2.3,0-4.2.6-5.6,1.8-1.4,1.2-2.1,2.8-2.1,4.9v2.4h-14.7v-3.9c0-1.9-.6-3.4-1.9-4.5-1.2-1.2-2.8-1.8-4.6-1.8s-3.4.6-4.7,1.8c-1.3,1.2-1.9,2.9-1.9,5v14.5c1.5-1.8,3.6-3.2,6.2-4.3,2.6-1.1,5.3-1.6,8.3-1.6,4.9,0,9.3,1,13.1,3.1,3.8,2.1,6.7,5,8.8,8.8,2.1,3.8,3.1,8,3.1,12.8s-1.1,9-3.2,12.7c-2.2,3.7-5.3,6.6-9.4,8.7-4.1,2.1-8.9,3.2-14.4,3.2-8.5,0-15.2-2.3-20-6.9Zm11-8.9c2.3,2.1,5.2,3.1,8.8,3.1s6.5-1.1,8.8-3.2c2.3-2.2,3.4-5,3.4-8.6s-1.1-6.5-3.4-8.7c-2.2-2.2-5.2-3.2-8.9-3.2s-6.5,1-8.8,3.1c-2.3,2.1-3.4,4.8-3.4,8.2v1.7c0,3.1,1.2,5.6,3.5,7.7Z"/>
    <path class="cls-2" d="m133.4,125.5c-4-2.1-7.1-4.9-9.3-8.6-2.2-3.6-3.3-7.8-3.3-12.4s.4-5.4,1.3-8.2l14.3.6c-.5,2.5-.7,4.5-.7,6.2,0,3.8,1,6.8,3.1,9,2.1,2.2,4.9,3.4,8.6,3.4s6.4-1,8.5-3.1c2.2-2.1,3.2-5.1,3.2-9v-27.7c0-3.5-1.1-6.2-3.1-8-2-1.8-4.5-2.8-7.6-2.8s-5.9.9-7.8,2.8c-1.9,1.9-2.8,4.5-2.8,7.8s.1,2.9.4,4.2l-14.9.4c-.4-2.2-.6-4.4-.6-6.6,0-4.3,1.1-8.2,3.4-11.5,2.3-3.3,5.4-5.8,9.2-7.6,3.9-1.8,8.2-2.6,13.1-2.6s9.2,1,13.1,2.8c3.9,1.9,6.9,4.7,9.1,8.2,2.2,3.6,3.3,7.8,3.3,12.7v27.8c0,5.1-1.1,9.5-3.2,13.3-2.1,3.8-5.2,6.7-9.2,8.8s-8.8,3.1-14.3,3.1-9.9-1-13.9-3.1Z"/>
    <path class="cls-2" d="m194.7,121.8c-4.8-4.5-7.1-10.8-7.1-18.8v-50.2h14.8v50.4c0,4.1,1.1,7.2,3.3,9.3,2.2,2.2,5,3.2,8.3,3.2s6-1,8.2-2.8c2.2-1.9,3.4-4.4,3.4-7.4s-.3-3.8-.9-5.3c-.6-1.5-1.5-3.2-2.6-5.3-1.6-2.7-2.8-5.1-3.5-7.4-.7-2.3-1-5.2-.7-8.7h14.6c0,2.6.3,4.8,1,6.5.6,1.8,1.6,3.8,2.9,6.1,1.4,2.5,2.5,4.8,3.2,6.9.7,2,1.1,4.6,1.1,7.8s-1.1,7.7-3.3,11.1c-2.2,3.4-5.3,6.1-9.4,8.1-4,2-8.7,3-13.9,3-8.1,0-14.6-2.2-19.4-6.8Z"/>
    <path class="cls-2" d="m261.9,125.5c-4-2.1-7.1-4.9-9.3-8.6-2.2-3.6-3.3-7.8-3.3-12.4s.4-5.4,1.3-8.2l14.3.6c-.5,2.5-.7,4.5-.7,6.2,0,3.8,1,6.8,3.1,9,2.1,2.2,4.9,3.4,8.6,3.4s6.4-1,8.5-3.1c2.2-2.1,3.2-5.1,3.2-9v-27.7c0-3.5-1.1-6.2-3.1-8-2-1.8-4.5-2.8-7.6-2.8s-5.9.9-7.8,2.8c-1.9,1.9-2.8,4.5-2.8,7.8s.1,2.9.4,4.2l-14.9.4c-.4-2.2-.6-4.4-.6-6.6,0-4.3,1.1-8.2,3.4-11.5,2.3-3.3,5.4-5.8,9.2-7.6,3.9-1.8,8.2-2.6,13.1-2.6s9.2,1,13.1,2.8c3.9,1.9,6.9,4.7,9.1,8.2,2.2,3.6,3.3,7.8,3.3,12.7v27.8c0,5.1-1.1,9.5-3.2,13.3-2.1,3.8-5.2,6.7-9.2,8.8s-8.8,3.1-14.3,3.1-9.9-1-13.9-3.1Z"/>
    <path class="cls-2" d="m326.4,125.5c-4.2-2-7.4-4.9-9.8-8.7-2.4-3.8-3.5-8.1-3.5-13s2-11.9,5.9-16.2c4-4.4,9.2-7.1,15.7-8.2v-6c0-1.5-.3-2.8-1-3.7-.6-.9-1.6-2-3-3.3-1.9-1.7-3.4-3.5-4.4-5.4-1-1.9-1.3-4.6-1-8.2h14.7c0,2,.4,3.6,1.1,4.8.7,1.2,1.8,2.4,3.3,3.6,1.7,1.4,2.9,2.8,3.8,4.2.9,1.4,1.3,3.5,1.3,6.1v8.6c5.6,1.5,10.1,4.4,13.5,8.6,3.4,4.2,5,9.2,5,15.1s-1.2,9.3-3.6,13c-2.4,3.8-5.7,6.7-9.9,8.7-4.2,2-8.8,3-14,3s-9.9-1-14-3Zm5.1-12.9c2.3,2.2,5.3,3.2,9,3.2s6.8-1.1,9-3.2c2.3-2.2,3.5-5.1,3.5-8.8s-1.1-6.6-3.5-8.8c-2.3-2.2-5.3-3.3-9-3.3s-6.6,1.1-9,3.3c-2.3,2.2-3.4,5.1-3.4,8.8s1.1,6.7,3.4,8.8Z"/>
    <path class="cls-2" d="m378.8,110.3c-1-5.8-1.5-12.2-1.5-19.2v-11.5c0-5.8,1.1-10.8,3.4-15,2.3-4.2,5.4-7.4,9.4-9.6,4-2.2,8.5-3.3,13.6-3.3s9.5,1.1,13.4,3.3c4,2.2,7.1,5.4,9.4,9.5,2.3,4.2,3.4,9.1,3.4,14.8v11.7c0,7.1-.5,13.5-1.4,19.3-1,5.8-2.4,11.6-4.2,17.2h-14.4c3.5-11.7,5.2-23.6,5.2-35.9v-11.5c0-4.9-1-8.7-3.1-11.4-2-2.7-4.8-4-8.3-4s-6.3,1.3-8.4,4c-2,2.7-3.1,6.5-3.1,11.5v11.4c0,12.3,1.7,24.2,5.2,35.9h-14.5c-1.8-5.7-3.2-11.5-4.1-17.2Z"/>
  </g>
  <g>
    <rect class="cls-2" x="59.4" y="320" width="558.2" height="655.8" rx="40" ry="40"/>
    <g>
      <path class="cls-1" d="m180.7,412.7c-2.1-.9-4.6-1.4-7.7-1.4h-14.8v-6.7h4.5c-2.8-1.6-5.1-3.9-6.8-6.9-1.7-3-2.6-6.3-2.6-9.9s.6-6.5,1.9-8.9c1.2-2.4,2.9-4.1,5-5.3,2.1-1.2,4.4-1.7,6.9-1.7s4.3.5,6.3,1.5c1.9,1,3.3,2.4,4.2,4.2.9-1.8,2.4-3.1,4.3-4.2,2-1,4.1-1.5,6.5-1.5s5.2.6,7.4,1.8c2.2,1.2,3.9,2.9,5.2,5,1.3,2.2,1.9,4.7,1.9,7.5s-.6,5.2-1.9,7.3c-1.3,2.1-3.1,3.8-5.3,5-2.3,1.2-4.8,1.8-7.6,1.8s-5.4-.6-7.6-1.7c-2.3-1.2-4-2.8-5.3-4.8-1.3-2.1-1.9-4.4-1.9-7v-1.2c0-1.8-.4-3.2-1.3-4.3-.9-1.1-2.1-1.7-3.6-1.7s-3.1.7-4.1,2.1c-1,1.4-1.5,3.5-1.5,6.4,0,5,1.4,8.8,4.1,11.4,2.7,2.6,6.1,4.1,10.2,4.5l2,.2c4.4.5,7.9,1.8,10.5,4.1,2.6,2.2,4,5.3,4.3,9.3h-9.1c-.4-2.2-1.6-3.8-3.7-4.7Zm2.8-21.7c1.1,1.2,2.6,1.9,4.5,1.9s3.3-.6,4.4-1.8c1.1-1.2,1.7-2.8,1.7-4.9s-.6-3.7-1.6-4.9c-1.1-1.2-2.6-1.8-4.4-1.8s-3.3.6-4.5,1.8c-1.1,1.2-1.7,2.9-1.7,4.9s.6,3.6,1.7,4.9Z"/>
      <path class="cls-1" d="m226.3,377.4c.4,1.4,1,2.7,1.7,3.8.7,1.1,1.6,2.4,2.8,3.9,1.4,1.8,2.4,3.3,3.3,4.6.8,1.3,1.5,3,2.1,5,.6,2,.9,4.2.9,6.8s-.7,6.5-2.1,9c-1.4,2.5-3.3,4.4-5.8,5.6-2.4,1.3-5.1,1.9-8.1,1.9s-5.7-.6-8.1-1.9c-2.4-1.3-4.3-3.2-5.7-5.6-1.4-2.5-2.1-5.5-2.1-9s.3-4.3.8-6.6l8.7.3c-.4,1.9-.6,3.7-.6,5.6,0,2.9.6,5.2,1.8,6.8,1.2,1.7,2.9,2.5,5.1,2.5s3.8-.8,5-2.2c1.2-1.5,1.8-3.7,1.9-6.5,0-2.3-.4-4.2-1.2-5.8-.8-1.6-2.1-3.5-3.8-5.7-1.4-1.8-2.5-3.4-3.4-4.9-.9-1.4-1.6-3.2-2.2-5.2-.6-2-.8-4.4-.8-7.1h8.9c0,1.8.2,3.4.7,4.9Z"/>
      <path class="cls-1" d="m263.6,377.4c.4,1.4,1,2.7,1.7,3.8.7,1.1,1.6,2.4,2.8,3.9,1.4,1.8,2.4,3.3,3.3,4.6.8,1.3,1.5,3,2.1,5,.6,2,.9,4.2.9,6.8s-.7,6.5-2.1,9c-1.4,2.5-3.3,4.4-5.8,5.6-2.4,1.3-5.1,1.9-8.1,1.9s-5.7-.6-8.1-1.9c-2.4-1.3-4.3-3.2-5.7-5.6-1.4-2.5-2.1-5.5-2.1-9s.3-4.3.8-6.6l8.7.3c-.4,1.9-.6,3.7-.6,5.6,0,2.9.6,5.2,1.8,6.8,1.2,1.7,2.9,2.5,5.1,2.5s3.8-.8,5-2.2c1.2-1.5,1.8-3.7,1.9-6.5,0-2.3-.4-4.2-1.2-5.8-.8-1.6-2.1-3.5-3.8-5.7-1.4-1.8-2.5-3.4-3.4-4.9-.9-1.4-1.6-3.2-2.2-5.2-.6-2-.8-4.4-.8-7.1h8.9c0,1.8.2,3.4.7,4.9Z"/>
      <path class="cls-1" d="m321.2,390.1c2.1,1.1,3.7,2.9,4.9,5.2,1.2,2.4,1.8,5.3,1.8,8.9s-.3,4.6-.8,6.7-1.3,4.3-2.2,6.4h-8.8c1-2.4,1.7-4.6,2.1-6.5.5-2,.7-4.1.7-6.3s-.5-4.9-1.5-6.3c-1-1.4-2.3-2-4-2s-2.8.6-3.7,1.8c-.9,1.2-1.3,2.8-1.3,5v7.7h-8.9v-7.7c0-2.1-.4-3.8-1.3-5-.8-1.2-2-1.8-3.6-1.8s-3.1.7-4,2c-1,1.3-1.5,3.5-1.5,6.3s.2,4.4.7,6.3c.4,1.9,1.2,4.1,2.2,6.5h-8.8c-1-2.8-1.8-5.5-2.2-8.1-.5-2.6-.8-5.6-.8-9.1,0-5.5,1-9.9,2.9-13,1.9-3.2,4.2-5.4,6.7-6.8,2.6-1.3,5.7-2.6,9.5-3.6,2.5-.7,4.4-1.4,5.5-1.9,1.1-.6,1.9-1.4,2.1-2.4h9.2c-.2,2.4-1,4.3-2.4,5.8-1.5,1.5-3.2,2.6-5.2,3.4-2,.8-4.6,1.6-7.9,2.4-2.6.7-4.8,1.3-6.4,1.8-1.6.5-3,1.2-4.3,2.2-1.3.9-2.1,2.1-2.6,3.5.8-1.1,2-1.9,3.4-2.4,1.4-.5,2.8-.8,4.2-.8,4.4,0,7.4,1.7,9.2,5.2,1.9-3.5,5.3-5.2,10.3-5.2s4.8.6,6.9,1.7Z"/>
      <path class="cls-1" d="m338.7,413.8c-2.9-2.8-4.3-6.5-4.3-11.2v-19.9c0-2,.4-3.9,1.4-5.5.9-1.6,2.3-2.9,4-3.8,1.7-.9,3.7-1.4,5.9-1.4s4,.4,5.6,1.2c1.7.8,3,2,3.8,3.6,1.6-3.1,4.3-4.7,8.2-4.7s2.8.1,3.5.4v7.6c-.6-.1-1.4-.2-2.3-.2-1.4,0-2.5.4-3.4,1.1-.9.7-1.3,1.7-1.3,2.9v1.4h-8.8v-2.3c0-1.1-.4-2-1.1-2.7-.7-.7-1.7-1-2.8-1s-2.1.4-2.8,1c-.8.7-1.1,1.7-1.1,3v8.7c.9-1.1,2.1-1.9,3.7-2.6,1.5-.6,3.2-1,5-1,3,0,5.6.6,7.8,1.9,2.3,1.3,4,3,5.3,5.3,1.3,2.3,1.9,4.8,1.9,7.7s-.7,5.4-2,7.6c-1.3,2.2-3.2,4-5.6,5.2s-5.4,1.9-8.7,1.9c-5.1,0-9.1-1.4-12-4.1Zm6.6-5.3c1.4,1.2,3.1,1.9,5.2,1.9s3.9-.7,5.3-2c1.4-1.3,2-3,2-5.2s-.7-3.9-2-5.2c-1.3-1.3-3.1-2-5.3-2s-3.9.6-5.3,1.9c-1.4,1.2-2,2.9-2,4.9v1c0,1.8.7,3.4,2.1,4.6Z"/>
      <path class="cls-1" d="m380.4,416.1c-2.5-1.3-4.3-3-5.6-5.3-1.3-2.3-2-4.8-2-7.8s.6-5.5,1.9-7.8c1.2-2.3,3-4,5.3-5.3,2.3-1.3,4.9-1.9,7.9-1.9s3.5.3,5,1c1.5.6,2.8,1.5,3.7,2.6v-6c0-2-.7-3.5-2.1-4.6-1.4-1.1-3.1-1.7-5.2-1.7s-3.7.5-5,1.5c-1.3,1-2,2.3-2,3.8l-9.1-.3c0-2.4.7-4.5,2.1-6.5,1.4-1.9,3.4-3.4,5.8-4.4,2.5-1,5.2-1.6,8.2-1.6s5.8.6,8.3,1.8c2.5,1.2,4.4,2.8,5.8,5,1.4,2.1,2.1,4.6,2.1,7.3v16.7c0,4.7-1.4,8.5-4.3,11.2-2.9,2.8-6.9,4.1-12,4.1s-6.2-.6-8.7-1.9Zm3.5-7.7c1.3,1.3,3.1,2,5.3,2s3.9-.6,5.3-1.9c1.4-1.3,2-2.9,2-4.9v-1.1c0-2-.7-3.7-2-4.9-1.4-1.3-3.1-1.9-5.3-1.9s-4,.7-5.3,2c-1.3,1.3-2,3.1-2,5.4s.7,4,2,5.4Z"/>
      <path class="cls-1" d="m420.3,416.1c-2.4-1.2-4.3-2.9-5.6-5.1-1.3-2.2-2-4.7-2-7.5s.3-3.2.8-4.9l8.6.4c-.3,1.5-.4,2.7-.4,3.7,0,2.3.6,4.1,1.9,5.4,1.2,1.3,3,2,5.2,2s3.8-.6,5.1-1.9c1.3-1.3,2-3.1,2-5.4v-18.8c0-1.4-.4-2.4-1.1-3.1-.7-.7-1.7-1.1-2.9-1.1s-2.1.4-2.8,1.1c-.7.7-1.1,1.8-1.1,3.2v7.7h-8.8v-6.7c0-1.5-.4-2.7-1.2-3.5-.8-.8-2-1.2-3.4-1.2h-2.6v-8.2h4.1c3.8,0,6.5,1.6,8,4.7.8-1.7,2.1-2.9,3.8-3.8,1.7-.8,3.6-1.2,5.6-1.2s4.2.5,5.9,1.4c1.7,1,3,2.3,4,3.9.9,1.7,1.4,3.6,1.4,5.7v19.9c0,3-.6,5.7-1.9,8-1.3,2.3-3.1,4-5.5,5.3-2.4,1.2-5.3,1.9-8.6,1.9s-5.9-.6-8.3-1.9Z"/>
      <path class="cls-1" d="m460,416.1c-2.4-1.3-4.3-3-5.6-5.4-1.3-2.3-2-5-2-8.1v-18.1c0-4,1.3-7,3.8-9s6-3,10.3-3h15.4v7.8h-15.2c-1.7,0-3,.4-4,1.3-1,.9-1.4,2.1-1.4,3.8v6.2c.9-1.1,2.1-1.9,3.7-2.6,1.5-.6,3.2-1,5-1,3,0,5.6.6,7.8,1.9,2.3,1.3,4,3,5.2,5.3,1.2,2.3,1.9,4.9,1.9,7.8s-.7,5.5-1.9,7.8c-1.3,2.3-3.2,4-5.6,5.3-2.4,1.3-5.3,1.9-8.6,1.9s-6.3-.6-8.8-1.9Zm3.4-7.6c1.4,1.3,3.1,1.9,5.3,1.9s3.9-.7,5.3-2c1.4-1.3,2-3.1,2-5.4s-.7-4-2-5.4c-1.3-1.3-3.1-2-5.3-2s-3.9.6-5.3,1.9c-1.4,1.3-2,2.9-2,4.9v1.1c0,2,.7,3.6,2,4.9Z"/>
      <path class="cls-1" d="m498.2,416.1c-2.4-1.2-4.3-2.9-5.6-5.1-1.3-2.2-2-4.7-2-7.5s.3-3.2.8-4.9l8.6.4c-.3,1.5-.4,2.7-.4,3.7,0,2.3.6,4.1,1.9,5.4,1.2,1.3,3,2,5.2,2s3.8-.6,5.1-1.9c1.3-1.2,2-3,2-5.4v-16.6c0-2.1-.7-3.7-1.9-4.8-1.2-1.1-2.7-1.7-4.6-1.7s-3.6.6-4.7,1.7c-1.1,1.1-1.7,2.7-1.7,4.7s0,1.7.2,2.5l-8.9.2c-.2-1.3-.4-2.6-.4-4,0-2.6.7-4.9,2-6.9,1.4-2,3.2-3.5,5.6-4.6,2.3-1.1,4.9-1.6,7.8-1.6s5.5.6,7.9,1.7c2.3,1.1,4.1,2.8,5.5,4.9,1.3,2.2,2,4.7,2,7.6v16.7c0,3-.6,5.7-1.9,8-1.3,2.3-3.1,4-5.5,5.3-2.4,1.2-5.3,1.9-8.6,1.9s-5.9-.6-8.3-1.9Z"/>
      <path class="cls-1" d="m215.7,447.2c2.4,2.2,3.6,5.3,3.6,9.4s-.7,6.2-2.1,8.7c-1.4,2.5-3.4,5.1-6.1,7.8l-8,8.3h16.4v7.9h-27.7v-6.8l12.4-13.6c2.3-2.6,3.9-4.7,4.8-6.3.9-1.6,1.3-3.6,1.3-5.8s-.4-2.9-1.2-3.8c-.8-.9-1.9-1.4-3.4-1.4-3.2,0-4.9,2.2-5,6.5l-8.9-.5c0-4.4,1.3-7.8,3.7-10.3,2.4-2.4,5.8-3.7,10.1-3.7s7.7,1.1,10.1,3.3Z"/>
      <path class="cls-1" d="m249.8,446.6c2.5,1.8,4.5,4.4,5.9,7.9,1.4,3.5,2.1,7.6,2.1,12.5s-.7,9.1-2.1,12.5c-1.4,3.5-3.4,6.1-5.9,7.9-2.5,1.8-5.5,2.7-8.9,2.7s-6.3-.9-8.9-2.7c-2.5-1.8-4.5-4.4-5.9-7.9-1.4-3.5-2.1-7.6-2.1-12.5s.7-9,2.1-12.5c1.4-3.5,3.4-6.1,5.9-7.9,2.5-1.8,5.5-2.7,8.9-2.7s6.3.9,8.9,2.7Zm-14.8,31.7c1.3,2.5,3.3,3.8,5.9,3.8s4.7-1.3,5.9-3.8c1.3-2.5,1.9-6.3,1.9-11.4s-.6-8.8-1.9-11.4c-1.3-2.5-3.3-3.8-5.9-3.8s-4.7,1.3-5.9,3.8c-1.3,2.5-1.9,6.3-1.9,11.4s.6,8.8,1.9,11.4Z"/>
      <path class="cls-1" d="m282.4,485.8c-2.9-2.8-4.3-6.5-4.3-11.2v-19.9c0-2,.4-3.9,1.4-5.5.9-1.6,2.3-2.9,4-3.8,1.7-.9,3.7-1.4,5.9-1.4s4,.4,5.6,1.2c1.7.8,3,2,3.8,3.6,1.6-3.1,4.3-4.7,8.2-4.7s2.8.1,3.5.4v7.6c-.6-.1-1.4-.2-2.3-.2-1.4,0-2.5.4-3.4,1.1-.9.7-1.3,1.7-1.3,2.9v1.4h-8.8v-2.3c0-1.1-.4-2-1.1-2.7-.7-.7-1.7-1-2.8-1s-2.1.4-2.8,1c-.8.7-1.1,1.7-1.1,3v8.7c.9-1.1,2.1-1.9,3.7-2.6,1.5-.6,3.2-1,5-1,3,0,5.6.6,7.8,1.9,2.3,1.3,4,3,5.3,5.3,1.3,2.3,1.9,4.8,1.9,7.7s-.7,5.4-2,7.6c-1.3,2.2-3.2,4-5.6,5.2s-5.4,1.9-8.7,1.9c-5.1,0-9.1-1.4-12-4.1Zm6.6-5.3c1.4,1.2,3.1,1.9,5.2,1.9s3.9-.7,5.3-2c1.4-1.3,2-3,2-5.2s-.7-3.9-2-5.2c-1.3-1.3-3.1-2-5.3-2s-3.9.6-5.3,1.9c-1.4,1.2-2,2.9-2,4.9v1c0,1.8.7,3.4,2.1,4.6Z"/>
      <path class="cls-1" d="m324.5,488.1c-2.4-1.2-4.3-2.9-5.6-5.1-1.3-2.2-2-4.7-2-7.5s.3-3.2.8-4.9l8.6.4c-.3,1.5-.4,2.7-.4,3.7,0,2.3.6,4.1,1.9,5.4,1.2,1.3,3,2,5.2,2s3.8-.6,5.1-1.9c1.3-1.3,2-3.1,2-5.4v-18.8c0-1.4-.4-2.4-1.1-3.1-.7-.7-1.7-1.1-2.9-1.1s-2.1.4-2.8,1.1c-.7.7-1.1,1.8-1.1,3.2v7.7h-8.8v-6.7c0-1.5-.4-2.7-1.2-3.5-.8-.8-2-1.2-3.4-1.2h-2.6v-8.2h4.1c3.8,0,6.5,1.6,8,4.7.8-1.7,2.1-2.9,3.8-3.8,1.7-.8,3.6-1.2,5.6-1.2s4.2.5,5.9,1.4c1.7,1,3,2.3,4,3.9.9,1.7,1.4,3.6,1.4,5.7v19.9c0,3-.6,5.7-1.9,8-1.3,2.3-3.1,4-5.5,5.3-2.4,1.2-5.3,1.9-8.6,1.9s-5.9-.6-8.3-1.9Z"/>
      <path class="cls-1" d="m363.8,488c-2.3-1.3-4.1-3.2-5.5-5.8-1.3-2.5-2-5.5-2-9v-12.7c0-3.5.6-6.5,1.9-9,1.3-2.5,3-4.4,5.3-5.8,2.3-1.3,4.9-2,7.8-2,5.4,0,9.2,2,11.3,6.1,1-2.1,2.4-3.7,4.3-4.7,1.9-1,4-1.5,6.1-1.5,4,0,7.3,1.3,9.7,4s3.6,6.6,3.6,11.7v7.5c0,4.4-.3,8.4-.8,11.9-.6,3.5-1.4,7-2.5,10.5h-8.8c1-3.5,1.8-7.1,2.4-10.7.5-3.6.8-7.4.8-11.5v-8.3c0-2.4-.5-4.3-1.4-5.5-.9-1.2-2.2-1.8-3.9-1.8s-2.9.6-3.8,1.8c-.9,1.2-1.3,3-1.3,5.5v14.5c0,3.4-.7,6.4-2,8.9-1.3,2.5-3.2,4.4-5.5,5.7-2.3,1.3-4.9,1.9-7.9,1.9s-5.6-.7-7.9-2Zm3.2-8.1c1.1,1.5,2.7,2.2,4.7,2.2s3.6-.7,4.7-2.2c1.1-1.5,1.7-3.7,1.7-6.6v-12.8c0-3-.6-5.2-1.7-6.6-1.1-1.5-2.7-2.2-4.7-2.2s-3.6.7-4.7,2.2c-1.1,1.5-1.7,3.7-1.7,6.7v12.7c0,3,.6,5.2,1.7,6.7Z"/>
      <path class="cls-1" d="m420.5,488.1c-2.5-1.3-4.3-3-5.6-5.2-1.3-2.2-2-4.8-2-7.6s.6-5.5,1.9-7.7c1.3-2.3,3-4,5.3-5.3,2.3-1.3,4.9-1.9,7.8-1.9s3.5.3,5,1c1.5.6,2.8,1.5,3.7,2.6v-8.7c0-1.3-.4-2.3-1.1-3-.8-.7-1.7-1-2.8-1s-2.1.4-2.8,1c-.7.7-1.1,1.6-1.1,2.7v2.3h-8.8v-1.4c0-1.2-.4-2.2-1.3-2.9-.9-.7-2-1.1-3.4-1.1s-1.7,0-2.3.2v-7.6c.8-.2,2-.4,3.5-.4,3.9,0,6.6,1.6,8.2,4.7.9-1.6,2.2-2.8,3.8-3.6s3.6-1.2,5.6-1.2,4.2.5,5.9,1.4c1.7.9,3,2.2,4,3.8.9,1.6,1.4,3.5,1.4,5.5v19.9c0,4.7-1.5,8.5-4.4,11.2-2.9,2.8-6.9,4.1-12,4.1s-6.2-.6-8.7-1.9Zm3.5-7.7c1.4,1.3,3.1,2,5.3,2s3.9-.6,5.2-1.9c1.4-1.2,2.1-2.8,2.1-4.6v-1c0-2-.7-3.7-2-4.9-1.4-1.2-3.1-1.9-5.3-1.9s-4,.7-5.3,2c-1.3,1.3-2,3-2,5.2s.7,3.9,2,5.2Z"/>
      <path class="cls-1" d="m453.8,479c-.6-3.5-.9-7.3-.9-11.6v-6.9c0-3.5.7-6.5,2-9,1.4-2.5,3.2-4.4,5.6-5.8,2.4-1.3,5.1-2,8.1-2s5.7.7,8.1,2c2.4,1.3,4.2,3.2,5.6,5.7,1.4,2.5,2,5.5,2,8.9v7c0,4.2-.3,8.1-.9,11.6-.6,3.5-1.4,6.9-2.5,10.3h-8.6c2.1-7,3.1-14.2,3.1-21.5v-6.9c0-3-.6-5.2-1.8-6.8-1.2-1.6-2.9-2.4-5-2.4s-3.8.8-5,2.4c-1.2,1.6-1.8,3.9-1.8,6.9v6.8c0,7.4,1,14.5,3.1,21.5h-8.7c-1.1-3.4-1.9-6.9-2.5-10.3Z"/>
    </g>
  </g>
  <g>
    <rect class="cls-2" x="1302.4" y="212.1" width="558.2" height="655.8" rx="40" ry="40"/>
    <g>
      <path class="cls-1" d="m1386.4,308.2c-2.5-1.3-4.3-3-5.6-5.2-1.3-2.2-2-4.8-2-7.6s.6-5.5,1.9-7.7c1.3-2.3,3-4,5.3-5.3s4.9-1.9,7.8-1.9,3.5.3,5,1c1.5.6,2.8,1.5,3.7,2.6v-8.7c0-1.3-.4-2.3-1.1-3-.8-.7-1.7-1-2.8-1s-2,.4-2.8,1c-.7.7-1.1,1.6-1.1,2.7v2.3h-8.8v-1.4c0-1.2-.4-2.2-1.3-2.9-.9-.7-2-1.1-3.4-1.1s-1.7,0-2.3.2v-7.6c.8-.2,2-.4,3.5-.4,3.9,0,6.6,1.6,8.2,4.7.9-1.6,2.2-2.8,3.8-3.6,1.7-.8,3.6-1.2,5.6-1.2s4.2.5,5.9,1.4c1.7.9,3,2.2,4,3.8s1.4,3.5,1.4,5.5v19.9c0,4.7-1.5,8.5-4.3,11.2-2.9,2.8-6.9,4.1-12,4.1s-6.2-.6-8.7-1.9Zm3.5-7.7c1.4,1.3,3.1,2,5.3,2s3.9-.6,5.2-1.9c1.4-1.2,2.1-2.8,2.1-4.6v-1c0-2-.7-3.7-2-4.9-1.4-1.2-3.1-1.9-5.3-1.9s-4,.7-5.3,2c-1.3,1.3-2,3-2,5.2s.7,3.9,2,5.2Z"/>
      <path class="cls-1" d="m1425.5,308.2c-2.4-1.2-4.3-2.9-5.6-5.1-1.3-2.2-2-4.7-2-7.5s.3-3.2.8-4.9l8.6.4c-.3,1.5-.4,2.7-.4,3.7,0,2.3.6,4.1,1.9,5.4,1.2,1.3,3,2,5.2,2s3.8-.6,5.1-1.9c1.3-1.2,2-3,2-5.4v-16.6c0-2.1-.7-3.7-1.9-4.8-1.2-1.1-2.7-1.7-4.6-1.7s-3.6.6-4.7,1.7c-1.1,1.1-1.7,2.7-1.7,4.7s0,1.7.2,2.5l-8.9.2c-.2-1.3-.4-2.6-.4-4,0-2.6.7-4.9,2-6.9,1.4-2,3.2-3.5,5.6-4.6,2.3-1.1,4.9-1.6,7.8-1.6s5.5.6,7.9,1.7c2.3,1.1,4.1,2.8,5.5,4.9s2,4.7,2,7.6v16.7c0,3-.6,5.7-1.9,8-1.3,2.3-3.1,4-5.5,5.3-2.4,1.2-5.3,1.9-8.6,1.9s-5.9-.6-8.3-1.9Z"/>
      <path class="cls-1" d="m1466.5,308.2c-2.5-1.2-4.5-3-5.9-5.2-1.4-2.3-2.1-4.9-2.1-7.8s1.4-7,4.1-9.5c-2-.6-3.7-1.8-5.1-3.6-1.4-1.8-2-3.8-2-6.1s.6-4.4,1.8-6.3c1.2-1.8,2.8-3.2,4.9-4.2,2.1-1,4.5-1.5,7.1-1.5s5.1.5,7.2,1.4c2.1,1,3.8,2.3,5,4,1.2,1.7,1.8,3.6,1.8,5.8s-.2,2.5-.6,3.6c-.4,1.1-1.1,2.1-2,3.1,3.2.7,5.7,2.3,7.7,4.7,2,2.4,3,5.2,3,8.5s-.7,5.6-2.2,7.8c-1.4,2.3-3.4,4-5.9,5.2-2.5,1.2-5.3,1.8-8.4,1.8s-5.9-.6-8.4-1.8Zm-.8-28.6c1,.9,2.2,1.4,3.7,1.4s2.8-.5,3.8-1.4c1-.9,1.5-2,1.5-3.4s-.5-2.4-1.5-3.4c-1-.9-2.2-1.4-3.8-1.4s-2.7.5-3.7,1.4c-1,.9-1.5,2.1-1.5,3.4s.5,2.4,1.5,3.4Zm3.8,20.9c1.4,1.3,3.2,2,5.4,2s4.1-.7,5.5-2c1.4-1.3,2.1-3.1,2.1-5.3s-.7-4-2.1-5.3c-1.4-1.3-3.2-2-5.5-2s-4,.7-5.4,2c-1.4,1.3-2.1,3.1-2.1,5.3s.7,4,2.1,5.3Z"/>
      <path class="cls-1" d="m1521.5,304.2c-2-.9-4.5-1.4-7.6-1.4h-15.1v-6.7h4.6c-2.9-1.5-5.1-3.8-6.6-6.7-1.5-2.9-2.2-6.1-2.2-9.5s.6-6.5,1.8-8.9c1.2-2.4,2.9-4.1,5-5.3,2.1-1.2,4.4-1.7,6.9-1.7,5,0,8.4,1.8,10.2,5.5,1.9-3.7,5.3-5.5,10.3-5.5s4.8.6,6.9,1.7c2.1,1.2,3.7,3,4.9,5.4,1.2,2.4,1.8,5.5,1.8,9.1s-.7,7.8-2,11.7l-8.8-.5c1.2-3.4,1.7-7,1.7-10.8s-.5-5.4-1.5-6.9c-1-1.5-2.3-2.2-4-2.2s-2.8.6-3.7,1.8c-.9,1.2-1.3,2.9-1.3,5.1v8.2h-8.9v-8.2c0-2.2-.4-3.9-1.3-5.1-.9-1.2-2.1-1.8-3.6-1.8s-3,.7-4,2.2c-1,1.4-1.5,3.7-1.5,6.8,0,9,4.4,13.9,13.1,14.6l2,.2c4.4.4,7.9,1.7,10.7,4.1,2.8,2.4,4.3,5.7,4.6,10h-8.9c-.4-2.6-1.6-4.3-3.6-5.2Z"/>
      <path class="cls-1" d="m1555.7,308.2c-2.4-1.2-4.3-2.9-5.6-5.1-1.3-2.2-2-4.7-2-7.5s.3-3.2.8-4.9l8.6.4c-.3,1.5-.4,2.7-.4,3.7,0,2.3.6,4.1,1.9,5.4,1.2,1.3,3,2,5.2,2s3.8-.6,5.1-1.9c1.3-1.3,2-3.1,2-5.4v-18.8c0-1.4-.4-2.4-1.1-3.1s-1.7-1.1-2.8-1.1-2.1.4-2.8,1.1-1.1,1.8-1.1,3.2v7.7h-8.8v-6.7c0-1.5-.4-2.7-1.2-3.5-.8-.8-2-1.2-3.5-1.2h-2.6v-8.2h4.1c3.8,0,6.5,1.6,8,4.7.8-1.7,2.1-2.9,3.8-3.8,1.7-.8,3.6-1.2,5.6-1.2s4.2.5,5.9,1.4,3,2.3,4,3.9c.9,1.7,1.4,3.6,1.4,5.7v19.9c0,3-.6,5.7-1.9,8-1.3,2.3-3.1,4-5.5,5.3-2.4,1.2-5.3,1.9-8.6,1.9s-5.9-.6-8.3-1.9Z"/>
      <path class="cls-1" d="m1614.3,304.8c-2.1-.9-4.6-1.4-7.7-1.4h-14.8v-6.7h4.5c-2.8-1.6-5.1-3.9-6.8-6.9-1.7-3-2.6-6.3-2.6-9.9s.6-6.5,1.9-8.9c1.2-2.4,2.9-4.1,5-5.3,2.1-1.2,4.4-1.7,6.9-1.7s4.3.5,6.3,1.5c1.9,1,3.3,2.4,4.2,4.2.9-1.8,2.4-3.1,4.3-4.2,2-1,4.1-1.5,6.5-1.5s5.2.6,7.4,1.8c2.2,1.2,3.9,2.9,5.2,5,1.3,2.2,1.9,4.7,1.9,7.5s-.6,5.2-1.9,7.3c-1.3,2.1-3.1,3.8-5.3,5-2.3,1.2-4.8,1.8-7.6,1.8s-5.4-.6-7.7-1.7-4-2.8-5.3-4.8c-1.3-2.1-2-4.4-2-7v-1.2c0-1.8-.4-3.2-1.3-4.3-.9-1.1-2.1-1.7-3.6-1.7s-3.1.7-4.1,2.1c-1,1.4-1.5,3.5-1.5,6.4,0,5,1.4,8.8,4.1,11.4,2.7,2.6,6.1,4.1,10.2,4.5l2,.2c4.4.5,7.9,1.8,10.5,4.1,2.6,2.2,4,5.3,4.3,9.3h-9.1c-.4-2.2-1.6-3.8-3.7-4.7Zm2.8-21.7c1.1,1.2,2.6,1.9,4.5,1.9s3.3-.6,4.4-1.8c1.1-1.2,1.7-2.8,1.7-4.9s-.5-3.7-1.6-4.9c-1.1-1.2-2.6-1.8-4.4-1.8s-3.3.6-4.5,1.8c-1.1,1.2-1.7,2.9-1.7,4.9s.6,3.6,1.7,4.9Z"/>
      <path class="cls-1" d="m1649.3,308.2c-2.4-1.2-4.3-2.9-5.6-5.1-1.3-2.2-2-4.7-2-7.5s.3-3.2.8-4.9l8.6.4c-.3,1.5-.4,2.7-.4,3.7,0,2.3.6,4.1,1.9,5.4,1.2,1.3,3,2,5.2,2s3.8-.6,5.1-1.9c1.3-1.3,2-3.1,2-5.4v-18.8c0-1.4-.4-2.4-1.1-3.1-.7-.7-1.7-1.1-2.9-1.1s-2.1.4-2.8,1.1c-.7.7-1.1,1.8-1.1,3.2v7.7h-8.8v-6.7c0-1.5-.4-2.7-1.2-3.5-.8-.8-2-1.2-3.4-1.2h-2.6v-8.2h4.1c3.8,0,6.5,1.6,8,4.7.8-1.7,2.1-2.9,3.8-3.8,1.7-.8,3.6-1.2,5.6-1.2s4.2.5,5.9,1.4c1.7,1,3,2.3,4,3.9.9,1.7,1.4,3.6,1.4,5.7v19.9c0,3-.6,5.7-1.9,8s-3.1,4-5.5,5.3c-2.4,1.2-5.3,1.9-8.6,1.9s-5.9-.6-8.3-1.9Z"/>
      <path class="cls-1" d="m1717,304.2c-2.6-.9-5.9-1.4-10-1.4h-20.5v-6.7h4.7c-3.4-1.4-6.1-3.6-8-6.6-1.9-3-2.8-6.5-2.8-10.6s.6-5.9,1.9-8.1,2.9-4,5-5.1c2.1-1.2,4.4-1.7,6.8-1.7s4,.4,5.7,1.3c1.7.9,3,2.3,4,4.4.9-2,2.2-3.5,3.9-4.4,1.7-.9,3.5-1.3,5.5-1.3s3.8.5,5.5,1.4c1.8.9,3.1,2.4,3.9,4.3,1-2,2.3-3.5,4-4.4,1.7-.9,3.6-1.3,5.8-1.3s4.7.6,6.8,1.8,3.7,3,4.9,5.5c1.2,2.5,1.8,5.6,1.8,9.4s-.6,7.1-1.9,11.3l-8.8-.5c1.1-3.4,1.7-7,1.7-11s-.5-5.1-1.4-6.6c-.9-1.4-2.2-2.1-3.8-2.1s-2.6.6-3.5,1.7c-.9,1.1-1.3,2.7-1.3,4.9v8.5h-8.9v-9.3c0-1.8-.5-3.2-1.3-4.2-.9-1-2.1-1.5-3.6-1.5s-2.7.5-3.5,1.5-1.3,2.4-1.3,4.2v9.3h-8.9v-8.5c0-2.2-.4-3.8-1.3-4.9-.9-1.1-2-1.7-3.4-1.7s-2.8.7-3.8,2c-1,1.4-1.5,3.4-1.5,6.1,0,5.4,1.7,9.3,5.1,11.6,3.4,2.3,7.4,3.5,12.2,3.7l4.6.2c5.8.2,10.3,1.5,13.7,4,3.4,2.5,5.2,5.9,5.5,10.2h-9.1c-.4-2.6-1.9-4.3-4.4-5.2Z"/>
      <path class="cls-1" d="m1753,299.1c-.6-3.5-.9-7.3-.9-11.6v-6.9c0-3.5.7-6.5,2-9,1.4-2.5,3.2-4.4,5.6-5.8,2.4-1.3,5.1-2,8.1-2s5.7.7,8.1,2c2.4,1.3,4.2,3.2,5.6,5.7,1.4,2.5,2,5.5,2,8.9v7c0,4.2-.3,8.1-.9,11.6-.6,3.5-1.4,6.9-2.5,10.3h-8.6c2.1-7,3.1-14.2,3.1-21.5v-6.9c0-3-.6-5.2-1.8-6.8-1.2-1.6-2.9-2.4-5-2.4s-3.8.8-5,2.4c-1.2,1.6-1.8,3.9-1.8,6.9v6.8c0,7.4,1,14.5,3.1,21.5h-8.7c-1.1-3.4-1.9-6.9-2.5-10.3Z"/>
      <path class="cls-1" d="m1531.3,376.8c-2.1-.9-4.6-1.4-7.7-1.4h-14.8v-6.7h4.5c-2.8-1.6-5.1-3.9-6.8-6.9-1.7-3-2.6-6.3-2.6-9.9s.6-6.5,1.9-8.9c1.2-2.4,2.9-4.1,5-5.3,2.1-1.2,4.4-1.7,6.9-1.7s4.3.5,6.3,1.5c1.9,1,3.3,2.4,4.2,4.2.9-1.8,2.4-3.1,4.3-4.2,2-1,4.1-1.5,6.5-1.5s5.2.6,7.4,1.8c2.2,1.2,3.9,2.9,5.2,5,1.3,2.2,1.9,4.7,1.9,7.5s-.6,5.2-1.9,7.3c-1.3,2.1-3.1,3.8-5.3,5-2.3,1.2-4.8,1.8-7.6,1.8s-5.4-.6-7.7-1.7-4-2.8-5.3-4.8c-1.3-2.1-2-4.4-2-7v-1.2c0-1.8-.4-3.2-1.3-4.3-.9-1.1-2.1-1.7-3.6-1.7s-3.1.7-4.1,2.1c-1,1.4-1.5,3.5-1.5,6.4,0,5,1.4,8.8,4.1,11.4,2.7,2.6,6.1,4.1,10.2,4.5l2,.2c4.4.5,7.9,1.8,10.5,4.1,2.6,2.2,4,5.3,4.3,9.3h-9.1c-.4-2.2-1.6-3.8-3.7-4.7Zm2.8-21.7c1.1,1.2,2.6,1.9,4.5,1.9s3.3-.6,4.4-1.8c1.1-1.2,1.7-2.8,1.7-4.9s-.5-3.7-1.6-4.9c-1.1-1.2-2.6-1.8-4.4-1.8s-3.3.6-4.5,1.8c-1.1,1.2-1.7,2.9-1.7,4.9s.6,3.6,1.7,4.9Z"/>
      <path class="cls-1" d="m1598.5,354.2c2.1,1.1,3.7,2.9,4.9,5.2,1.2,2.4,1.8,5.3,1.8,8.9s-.3,4.6-.8,6.7-1.3,4.3-2.2,6.4h-8.8c1-2.4,1.7-4.6,2.1-6.5.5-2,.7-4.1.7-6.3s-.5-4.9-1.5-6.3c-1-1.4-2.3-2-4-2s-2.8.6-3.7,1.8c-.9,1.2-1.3,2.8-1.3,5v7.7h-8.9v-7.7c0-2.1-.4-3.8-1.3-5-.8-1.2-2-1.8-3.6-1.8s-3.1.7-4,2c-1,1.3-1.5,3.5-1.5,6.3s.2,4.4.7,6.3c.4,1.9,1.2,4.1,2.2,6.5h-8.8c-1-2.8-1.8-5.5-2.2-8.1-.5-2.6-.8-5.6-.8-9.1,0-5.5,1-9.9,2.9-13s4.2-5.4,6.7-6.8c2.6-1.3,5.7-2.6,9.5-3.6,2.5-.7,4.3-1.4,5.5-1.9,1.1-.6,1.9-1.4,2.1-2.4h9.2c-.2,2.4-1,4.3-2.4,5.8-1.5,1.5-3.2,2.6-5.2,3.4-2,.8-4.6,1.6-7.9,2.4-2.6.7-4.8,1.3-6.4,1.8-1.6.5-3,1.2-4.3,2.2-1.3.9-2.1,2.1-2.6,3.5.8-1.1,2-1.9,3.4-2.4,1.4-.5,2.8-.8,4.2-.8,4.4,0,7.4,1.7,9.2,5.2,1.9-3.5,5.3-5.2,10.3-5.2s4.8.6,6.9,1.7Z"/>
      <path class="cls-1" d="m1611.7,371.1c-.6-3.5-.9-7.5-.9-11.9v-7.5c0-3.4.6-6.3,1.7-8.6,1.2-2.4,2.8-4.1,4.8-5.3s4.4-1.8,7.1-1.8c4.8,0,8.2,2,10.1,6.1,1-2.2,2.5-3.8,4.3-4.7,1.9-.9,3.9-1.3,6.1-1.3,4.1,0,7.3,1.3,9.7,4s3.6,6.6,3.6,11.7v7.5c0,4.4-.3,8.4-.8,11.9-.6,3.5-1.4,7-2.5,10.5h-8.8c1-3.5,1.8-7.1,2.4-10.7.5-3.6.8-7.4.8-11.5v-8.3c0-2.4-.5-4.3-1.4-5.5-.9-1.2-2.2-1.8-3.8-1.8s-2.9.6-3.8,1.8-1.3,3-1.3,5.5v17.4h-8.9v-17.4c0-2.4-.4-4.3-1.3-5.5s-2.2-1.8-3.8-1.8-2.9.6-3.8,1.8c-.9,1.2-1.4,3-1.4,5.5v8.3c0,7.8,1,15.1,3.1,22.1h-8.7c-1.1-3.4-1.9-6.9-2.5-10.4Z"/>
    </g>
  </g>
  <g>
    <rect class="cls-2" x="680.9" y="76.8" width="558.2" height="655.8" rx="40" ry="40"/>
    <g>
      <path class="cls-1" d="m764.8,172.9c-2.5-1.3-4.3-3-5.6-5.2-1.3-2.2-2-4.8-2-7.6s.6-5.5,1.9-7.7c1.3-2.3,3-4,5.3-5.3,2.3-1.3,4.9-1.9,7.8-1.9s3.5.3,5,1c1.5.6,2.8,1.5,3.7,2.6v-8.7c0-1.3-.4-2.3-1.1-3-.8-.7-1.7-1-2.8-1s-2.1.4-2.8,1c-.7.7-1.1,1.6-1.1,2.7v2.3h-8.8v-1.4c0-1.2-.4-2.2-1.3-2.9-.9-.7-2-1.1-3.4-1.1s-1.7,0-2.3.2v-7.6c.8-.2,2-.4,3.5-.4,3.9,0,6.6,1.6,8.2,4.7.9-1.6,2.2-2.8,3.8-3.6s3.6-1.2,5.6-1.2,4.2.5,5.9,1.4c1.7.9,3,2.2,4,3.8.9,1.6,1.4,3.5,1.4,5.5v19.9c0,4.7-1.5,8.5-4.4,11.2-2.9,2.8-6.9,4.1-12,4.1s-6.2-.6-8.7-1.9Zm3.5-7.7c1.4,1.3,3.1,2,5.3,2s3.9-.6,5.2-1.9c1.4-1.2,2.1-2.8,2.1-4.6v-1c0-2-.7-3.7-2-4.9-1.4-1.2-3.1-1.9-5.3-1.9s-4,.7-5.3,2c-1.3,1.3-2,3-2,5.2s.7,3.9,2,5.2Z"/>
      <path class="cls-1" d="m804,172.9c-2.4-1.2-4.3-2.9-5.6-5.1-1.3-2.2-2-4.7-2-7.5s.3-3.2.8-4.9l8.6.4c-.3,1.5-.4,2.7-.4,3.7,0,2.3.6,4.1,1.9,5.4,1.2,1.3,3,2,5.2,2s3.8-.6,5.1-1.9c1.3-1.2,2-3,2-5.4v-16.6c0-2.1-.7-3.7-1.9-4.8-1.2-1.1-2.7-1.7-4.6-1.7s-3.6.6-4.7,1.7c-1.1,1.1-1.7,2.7-1.7,4.7s0,1.7.2,2.5l-8.9.2c-.2-1.3-.4-2.6-.4-4,0-2.6.7-4.9,2-6.9,1.4-2,3.2-3.5,5.6-4.6,2.3-1.1,4.9-1.6,7.8-1.6s5.5.6,7.9,1.7c2.3,1.1,4.1,2.8,5.5,4.9,1.3,2.2,2,4.7,2,7.6v16.7c0,3-.6,5.7-1.9,8-1.3,2.3-3.1,4-5.5,5.3-2.4,1.2-5.3,1.9-8.6,1.9s-5.9-.6-8.3-1.9Z"/>
      <path class="cls-1" d="m845,172.9c-2.5-1.2-4.5-3-5.9-5.2-1.4-2.3-2.1-4.9-2.1-7.8s1.4-7,4.1-9.5c-2-.6-3.7-1.8-5.1-3.6-1.4-1.8-2-3.8-2-6.1s.6-4.4,1.8-6.3c1.2-1.8,2.8-3.2,4.9-4.2,2.1-1,4.5-1.5,7.1-1.5s5.1.5,7.2,1.4c2.1,1,3.8,2.3,5,4,1.2,1.7,1.8,3.6,1.8,5.8s-.2,2.5-.6,3.6c-.4,1.1-1.1,2.1-2,3.1,3.2.7,5.7,2.3,7.7,4.7,2,2.4,3,5.2,3,8.5s-.7,5.6-2.2,7.8c-1.4,2.3-3.4,4-5.9,5.2-2.5,1.2-5.3,1.8-8.4,1.8s-5.9-.6-8.4-1.8Zm-.8-28.6c1,.9,2.2,1.4,3.7,1.4s2.8-.5,3.8-1.4c1-.9,1.5-2,1.5-3.4s-.5-2.4-1.5-3.4c-1-.9-2.2-1.4-3.8-1.4s-2.7.5-3.7,1.4c-1,.9-1.5,2.1-1.5,3.4s.5,2.4,1.5,3.4Zm3.8,20.9c1.4,1.3,3.2,2,5.4,2s4.1-.7,5.5-2c1.4-1.3,2.1-3.1,2.1-5.3s-.7-4-2.1-5.3c-1.4-1.3-3.2-2-5.5-2s-4,.7-5.4,2c-1.4,1.3-2.1,3.1-2.1,5.3s.7,4,2.1,5.3Z"/>
      <path class="cls-1" d="m900,168.9c-2-.9-4.5-1.4-7.6-1.4h-15.1v-6.7h4.6c-2.9-1.5-5.1-3.8-6.6-6.7-1.5-2.9-2.2-6.1-2.2-9.5s.6-6.5,1.8-8.9c1.2-2.4,2.9-4.1,5-5.3,2.1-1.2,4.4-1.7,6.9-1.7,5,0,8.4,1.8,10.2,5.5,1.9-3.7,5.3-5.5,10.3-5.5s4.8.6,6.9,1.7c2.1,1.2,3.7,3,4.9,5.4,1.2,2.4,1.8,5.5,1.8,9.1s-.7,7.8-2,11.7l-8.8-.5c1.2-3.4,1.7-7,1.7-10.8s-.5-5.4-1.5-6.9c-1-1.5-2.3-2.2-4-2.2s-2.8.6-3.7,1.8c-.9,1.2-1.3,2.9-1.3,5.1v8.2h-8.9v-8.2c0-2.2-.4-3.9-1.3-5.1-.9-1.2-2.1-1.8-3.6-1.8s-3,.7-4,2.2c-1,1.4-1.5,3.7-1.5,6.8,0,9,4.4,13.9,13.1,14.6l2,.2c4.4.4,7.9,1.7,10.7,4.1,2.8,2.4,4.3,5.7,4.6,10h-8.9c-.4-2.6-1.6-4.3-3.6-5.2Z"/>
      <path class="cls-1" d="m934.2,172.9c-2.4-1.2-4.3-2.9-5.6-5.1-1.3-2.2-2-4.7-2-7.5s.3-3.2.8-4.9l8.6.4c-.3,1.5-.4,2.7-.4,3.7,0,2.3.6,4.1,1.9,5.4,1.2,1.3,3,2,5.2,2s3.8-.6,5.1-1.9c1.3-1.3,2-3.1,2-5.4v-18.8c0-1.4-.4-2.4-1.1-3.1-.7-.7-1.7-1.1-2.9-1.1s-2.1.4-2.8,1.1c-.7.7-1.1,1.8-1.1,3.2v7.7h-8.8v-6.7c0-1.5-.4-2.7-1.2-3.5-.8-.8-2-1.2-3.4-1.2h-2.6v-8.2h4.1c3.8,0,6.5,1.6,8,4.7.8-1.7,2.1-2.9,3.8-3.8,1.7-.8,3.6-1.2,5.6-1.2s4.2.5,5.9,1.4c1.7,1,3,2.3,4,3.9.9,1.7,1.4,3.6,1.4,5.7v19.9c0,3-.6,5.7-1.9,8-1.3,2.3-3.1,4-5.5,5.3-2.4,1.2-5.3,1.9-8.6,1.9s-5.9-.6-8.3-1.9Z"/>
      <path class="cls-1" d="m992.8,169.5c-2.1-.9-4.6-1.4-7.7-1.4h-14.8v-6.7h4.5c-2.8-1.6-5.1-3.9-6.8-6.9-1.7-3-2.6-6.3-2.6-9.9s.6-6.5,1.9-8.9c1.2-2.4,2.9-4.1,5-5.3,2.1-1.2,4.4-1.7,6.9-1.7s4.3.5,6.3,1.5c1.9,1,3.3,2.4,4.2,4.2.9-1.8,2.4-3.1,4.3-4.2,2-1,4.1-1.5,6.5-1.5s5.2.6,7.4,1.8c2.2,1.2,3.9,2.9,5.2,5,1.3,2.2,1.9,4.7,1.9,7.5s-.6,5.2-1.9,7.3c-1.3,2.1-3.1,3.8-5.3,5-2.3,1.2-4.8,1.8-7.6,1.8s-5.4-.6-7.6-1.7c-2.3-1.2-4-2.8-5.3-4.8-1.3-2.1-1.9-4.4-1.9-7v-1.2c0-1.8-.4-3.2-1.3-4.3-.9-1.1-2.1-1.7-3.6-1.7s-3.1.7-4.1,2.1c-1,1.4-1.5,3.5-1.5,6.4,0,5,1.4,8.8,4.1,11.4,2.7,2.6,6.1,4.1,10.2,4.5l2,.2c4.4.5,7.9,1.8,10.5,4.1,2.6,2.2,4,5.3,4.3,9.3h-9.1c-.4-2.2-1.6-3.8-3.7-4.7Zm2.8-21.7c1.1,1.2,2.6,1.9,4.5,1.9s3.3-.6,4.4-1.8c1.1-1.2,1.7-2.8,1.7-4.9s-.6-3.7-1.6-4.9c-1.1-1.2-2.6-1.8-4.4-1.8s-3.3.6-4.5,1.8c-1.1,1.2-1.7,2.9-1.7,4.9s.6,3.6,1.7,4.9Z"/>
      <path class="cls-1" d="m1027.7,172.9c-2.4-1.2-4.3-2.9-5.6-5.1-1.3-2.2-2-4.7-2-7.5s.3-3.2.8-4.9l8.6.4c-.3,1.5-.4,2.7-.4,3.7,0,2.3.6,4.1,1.9,5.4,1.2,1.3,3,2,5.2,2s3.8-.6,5.1-1.9c1.3-1.3,2-3.1,2-5.4v-18.8c0-1.4-.4-2.4-1.1-3.1-.7-.7-1.7-1.1-2.9-1.1s-2.1.4-2.8,1.1c-.7.7-1.1,1.8-1.1,3.2v7.7h-8.8v-6.7c0-1.5-.4-2.7-1.2-3.5-.8-.8-2-1.2-3.4-1.2h-2.6v-8.2h4.1c3.8,0,6.5,1.6,8,4.7.8-1.7,2.1-2.9,3.8-3.8,1.7-.8,3.6-1.2,5.6-1.2s4.2.5,5.9,1.4c1.7,1,3,2.3,4,3.9.9,1.7,1.4,3.6,1.4,5.7v19.9c0,3-.6,5.7-1.9,8-1.3,2.3-3.1,4-5.5,5.3-2.4,1.2-5.3,1.9-8.6,1.9s-5.9-.6-8.3-1.9Z"/>
      <path class="cls-1" d="m1095.5,168.9c-2.6-.9-5.9-1.4-10-1.4h-20.5v-6.7h4.7c-3.4-1.4-6.1-3.6-8-6.6-1.9-3-2.9-6.5-2.9-10.6s.6-5.9,1.9-8.1c1.2-2.3,2.9-4,5-5.1,2.1-1.2,4.4-1.7,6.8-1.7s4,.4,5.7,1.3c1.7.9,3,2.3,4,4.4.9-2,2.2-3.5,3.9-4.4,1.7-.9,3.5-1.3,5.6-1.3s3.8.5,5.5,1.4c1.8.9,3.1,2.4,3.9,4.3,1-2,2.3-3.5,4-4.4,1.7-.9,3.6-1.3,5.8-1.3s4.7.6,6.8,1.8c2,1.2,3.7,3,4.9,5.5,1.2,2.5,1.8,5.6,1.8,9.4s-.6,7.1-1.9,11.3l-8.8-.5c1.1-3.4,1.7-7,1.7-11s-.5-5.1-1.4-6.6c-.9-1.4-2.2-2.1-3.8-2.1s-2.6.6-3.5,1.7c-.9,1.1-1.3,2.7-1.3,4.9v8.5h-8.9v-9.3c0-1.8-.5-3.2-1.4-4.2s-2.1-1.5-3.6-1.5-2.7.5-3.5,1.5c-.8,1-1.3,2.4-1.3,4.2v9.3h-8.9v-8.5c0-2.2-.4-3.8-1.3-4.9-.9-1.1-2-1.7-3.4-1.7s-2.8.7-3.8,2c-1,1.4-1.5,3.4-1.5,6.1,0,5.4,1.7,9.3,5.1,11.6,3.4,2.3,7.4,3.5,12.2,3.7l4.6.2c5.8.2,10.3,1.5,13.7,4,3.4,2.5,5.2,5.9,5.5,10.2h-9.1c-.4-2.6-1.9-4.3-4.4-5.2Z"/>
      <path class="cls-1" d="m1131.5,163.8c-.6-3.5-.9-7.3-.9-11.6v-6.9c0-3.5.7-6.5,2-9,1.4-2.5,3.2-4.4,5.6-5.8,2.4-1.3,5.1-2,8.1-2s5.7.7,8.1,2c2.4,1.3,4.2,3.2,5.6,5.7,1.4,2.5,2,5.5,2,8.9v7c0,4.2-.3,8.1-.9,11.6-.6,3.5-1.4,6.9-2.5,10.3h-8.6c2.1-7,3.1-14.2,3.1-21.5v-6.9c0-3-.6-5.2-1.8-6.8-1.2-1.6-2.9-2.4-5-2.4s-3.8.8-5,2.4c-1.2,1.6-1.8,3.9-1.8,6.9v6.8c0,7.4,1,14.5,3.1,21.5h-8.7c-1.1-3.4-1.9-6.9-2.5-10.3Z"/>
      <path class="cls-1" d="m909.8,241.5c-2.1-.9-4.6-1.4-7.7-1.4h-14.8v-6.7h4.5c-2.8-1.6-5.1-3.9-6.8-6.9-1.7-3-2.6-6.3-2.6-9.9s.6-6.5,1.9-8.9c1.2-2.4,2.9-4.1,5-5.3,2.1-1.2,4.4-1.7,6.9-1.7s4.3.5,6.3,1.5c1.9,1,3.3,2.4,4.2,4.2.9-1.8,2.4-3.1,4.3-4.2,2-1,4.1-1.5,6.5-1.5s5.2.6,7.4,1.8c2.2,1.2,3.9,2.9,5.2,5,1.3,2.2,1.9,4.7,1.9,7.5s-.6,5.2-1.9,7.3c-1.3,2.1-3.1,3.8-5.3,5-2.3,1.2-4.8,1.8-7.6,1.8s-5.4-.6-7.6-1.7c-2.3-1.2-4-2.8-5.3-4.8-1.3-2.1-1.9-4.4-1.9-7v-1.2c0-1.8-.4-3.2-1.3-4.3-.9-1.1-2.1-1.7-3.6-1.7s-3.1.7-4.1,2.1c-1,1.4-1.5,3.5-1.5,6.4,0,5,1.4,8.8,4.1,11.4,2.7,2.6,6.1,4.1,10.2,4.5l2,.2c4.4.5,7.9,1.8,10.5,4.1,2.6,2.2,4,5.3,4.3,9.3h-9.1c-.4-2.2-1.6-3.8-3.7-4.7Zm2.8-21.7c1.1,1.2,2.6,1.9,4.5,1.9s3.3-.6,4.4-1.8c1.1-1.2,1.7-2.8,1.7-4.9s-.6-3.7-1.6-4.9c-1.1-1.2-2.6-1.8-4.4-1.8s-3.3.6-4.5,1.8c-1.1,1.2-1.7,2.9-1.7,4.9s.6,3.6,1.7,4.9Z"/>
      <path class="cls-1" d="m977,218.9c2.1,1.1,3.7,2.9,4.9,5.2,1.2,2.4,1.8,5.3,1.8,8.9s-.3,4.6-.8,6.7-1.3,4.3-2.2,6.4h-8.8c1-2.4,1.7-4.6,2.1-6.5.5-2,.7-4.1.7-6.3s-.5-4.9-1.5-6.3c-1-1.4-2.3-2-4-2s-2.8.6-3.7,1.8c-.9,1.2-1.3,2.8-1.3,5v7.7h-8.9v-7.7c0-2.1-.4-3.8-1.3-5-.8-1.2-2-1.8-3.6-1.8s-3.1.7-4,2c-1,1.3-1.5,3.5-1.5,6.3s.2,4.4.7,6.3c.4,1.9,1.2,4.1,2.2,6.5h-8.8c-1-2.8-1.8-5.5-2.2-8.1-.5-2.6-.8-5.6-.8-9.1,0-5.5,1-9.9,2.9-13,1.9-3.2,4.2-5.4,6.7-6.8,2.6-1.3,5.7-2.6,9.5-3.6,2.5-.7,4.4-1.4,5.5-1.9,1.1-.6,1.9-1.4,2.1-2.4h9.2c-.2,2.4-1,4.3-2.4,5.8-1.5,1.5-3.2,2.6-5.2,3.4-2,.8-4.6,1.6-7.9,2.4-2.6.7-4.8,1.3-6.4,1.8-1.6.5-3,1.2-4.3,2.2-1.3.9-2.1,2.1-2.6,3.5.8-1.1,2-1.9,3.4-2.4,1.4-.5,2.8-.8,4.2-.8,4.4,0,7.4,1.7,9.2,5.2,1.9-3.5,5.3-5.2,10.3-5.2s4.8.6,6.9,1.7Z"/>
      <path class="cls-1" d="m990.2,235.8c-.6-3.5-.9-7.5-.9-11.9v-7.5c0-3.4.6-6.3,1.7-8.6,1.2-2.4,2.8-4.1,4.8-5.3,2.1-1.2,4.4-1.8,7.1-1.8,4.8,0,8.2,2,10.1,6.1,1-2.2,2.5-3.8,4.4-4.7,1.9-.9,3.9-1.3,6.1-1.3,4.1,0,7.3,1.3,9.7,4,2.4,2.7,3.6,6.6,3.6,11.7v7.5c0,4.4-.3,8.4-.8,11.9-.6,3.5-1.4,7-2.5,10.5h-8.8c1-3.5,1.8-7.1,2.4-10.7.5-3.6.8-7.4.8-11.5v-8.3c0-2.4-.5-4.3-1.4-5.5-.9-1.2-2.2-1.8-3.8-1.8s-2.9.6-3.8,1.8c-.9,1.2-1.3,3-1.3,5.5v17.4h-8.9v-17.4c0-2.4-.4-4.3-1.4-5.5-.9-1.2-2.2-1.8-3.8-1.8s-2.9.6-3.8,1.8c-.9,1.2-1.4,3-1.4,5.5v8.3c0,7.8,1,15.1,3.1,22.1h-8.7c-1.1-3.4-1.9-6.9-2.5-10.4Z"/>
    </g>
  </g>
</svg>